<?xml version="1.0" encoding="utf-8"?>
<!-- Generator: Adobe Illustrator 26.2.1, SVG Export Plug-In . SVG Version: 6.00 Build 0)  -->
<svg version="1.1" id="Layer_1" xmlns="http://www.w3.org/2000/svg" xmlns:xlink="http://www.w3.org/1999/xlink" x="0px" y="0px"
	 viewBox="0 0 122.9 122.9" style="enable-background:new 0 0 122.9 122.9;" xml:space="preserve">
<style type="text/css">
	.st0{fill:#FFFFFF;}
</style>
<g>
	<path class="st0" d="M94.2,13.6l-10-10.1c-1.7-1.5-3.3-2-4.9-1.7s-2.9,1.5-4,3.6c-0.1,0.2-0.2,0.5-0.2,0.7
		c-1.6,13.5-0.1,23.8-1.7,37.3v0.2c0,0.4,0,0.8,0,1.3c0.4,2.9,3,5,6,4.6h0.2c13.5-1.6,23.8-0.1,37.3-1.7c0.2,0,0.5-0.1,0.7-0.2
		c2.1-1,3.3-2.4,3.6-4c0.3-1.6-0.3-3.2-1.7-4.8l-10.1-10.1c0,0,8.4-8.4,10-10s2.5-10.8,2.5-10.8V7.6c0.1-0.5,0.1-0.9,0-1.4
		c-0.4-3.3-3.3-5.6-6.6-5.2l0,0h-0.2c0,0-9.1,0.8-10.7,2.5S94.2,13.6,94.2,13.6z"/>
	<path class="st0" d="M28.6,109.4l10.1,10c1.6,1.5,3.2,2,4.8,1.7s2.9-1.5,4-3.6c0.1-0.2,0.2-0.5,0.2-0.7c1.6-13.5,0.1-23.8,1.7-37.3
		v-0.2c0-0.4,0-0.8,0-1.2c-0.3-2.9-3-5-5.9-4.7h-0.2C29.8,75,19.5,73.5,6,75.2c-0.2,0-0.5,0.1-0.7,0.2c-2.1,1-3.3,2.4-3.6,4
		C1.4,81,2,82.6,3.4,84.2l10.1,10c0,0-8.4,8.4-10,10S1,115.1,1,115.1v0.2c-0.1,0.5,0,0.9,0,1.4c0.4,3.2,3.4,5.5,6.6,5.1l0,0
		c0,0,9.3-0.8,11-2.5S28.6,109.4,28.6,109.4z"/>
	<path class="st0" d="M1,7.6v0.2c0,0,1,9.2,2.6,10.8s10,10.1,10,10.1L3.5,38.8c-1.5,1.6-2,3.2-1.7,4.8s1.5,2.9,3.6,4
		c0.2,0.1,0.5,0.2,0.7,0.2c13.5,1.6,23.8,0.1,37.3,1.7h0.2c0.4,0,0.8,0,1.2,0c2.9-0.3,5-3,4.7-5.9v-0.2c-1.6-13.5-0.1-23.8-1.7-37.3
		c0-0.2-0.1-0.5-0.2-0.7c-1-2.1-2.4-3.3-4-3.6c-1.6-0.3-3.2,0.3-4.8,1.7L28.5,13.7c0,0-8.3-8.3-10-10S7.8,1,7.8,1H7.6
		C7.1,1,6.7,1,6.2,1C2.9,1.4,0.6,4.4,1,7.6z"/>
	<path class="st0" d="M122,115.3L122,115.3c0,0-1-9.4-2.6-11.1s-10-9.9-10-9.9l10.1-10.2c1.5-1.6,2-3.2,1.7-4.8
		c-0.3-1.6-1.5-2.9-3.6-4c-0.2-0.1-0.5-0.2-0.7-0.2c-13.5-1.6-23.8-0.1-37.3-1.7h-0.2c-0.4,0-0.8,0-1.3,0c-2.9,0.3-5,3-4.7,5.9v0.2
		c1.7,13.5,0.1,23.8,1.8,37.3c0,0.2,0.1,0.5,0.2,0.7c1,2.1,2.4,3.3,4,3.6s3.2-0.3,4.8-1.7l10.1-10.1c0,0,8.3,8.3,10,10
		S115,122,115,122h0.2c0.5,0.1,0.9,0.1,1.4,0C120,121.5,122.3,118.6,122,115.3z"/>
</g>
</svg>
