<?xml version="1.0" encoding="utf-8"?>
<!-- Generator: Adobe Illustrator 26.2.1, SVG Export Plug-In . SVG Version: 6.00 Build 0)  -->
<svg version="1.1" id="Layer_1" xmlns="http://www.w3.org/2000/svg" xmlns:xlink="http://www.w3.org/1999/xlink" x="0px" y="0px"
	 viewBox="0 0 535.3 157.4" style="enable-background:new 0 0 535.3 157.4;" xml:space="preserve">
<style type="text/css">
	.st0{fill:#F15A29;stroke:#000000;stroke-miterlimit:10;}
</style>
<g>
	<path class="st0" d="M34.6,106.8l5.3,29.8l-10.5,1.9l-0.8-4.6c-1.8,3.9-4.6,6.2-8.4,6.8c-5.1,0.9-8.1-1.1-9-6.1l-3.9-22.1
		c3.5-0.8,7-1.6,10.4-2.6l4,22.6c0.3,2,1.1,2.8,2.3,2.6c3.2-0.6,4.1-4.2,2.9-11l-2.6-14.7C27.7,108.6,31.1,107.8,34.6,106.8z"/>
	<path class="st0" d="M73.2,130.7l-10.5,1.9l-3.8-21.4c-0.4-2.2-1.2-3.2-2.4-2.9c-1.2,0.2-2.1,1.3-2.7,3.1s-0.7,4-0.3,6.3l2.8,15.9
		l-10.5,1.9l-5.1-29.1c3.6-0.6,7.1-1.5,10.4-2.6l1,5.5c2-4.1,4.9-6.4,8.6-7.1c4.9-0.9,7.8,1.2,8.6,6.2L73.2,130.7z"/>
	<path class="st0" d="M98.2,85.1l7.1,40L94.7,127l-0.4-2.5c-1.4,2.4-3.6,3.9-6.5,4.4c-6.5,1.2-10.7-3.3-12.5-13.3
		c-1.8-10.3,0.7-16.1,7.7-17.3c2.7-0.5,5.1,0.3,7.2,2.5l-2.3-13.1C90.9,87,94.4,86.2,98.2,85.1z M87.1,101.9
		c-1.8,0.3-2.4,2.1-1.8,5.3l0.9,6.2l1.1,5.6c0.6,3.6,2,5.2,4,4.9c1.9-0.3,2.6-2.3,2-5.8l-1.1-7.1l-1.1-4.8
		C90.1,103,88.8,101.6,87.1,101.9z"/>
	<path class="st0" d="M129.9,109.8l4.5,0.5c0.7,6.8-2.6,10.8-10.1,12.2c-9.7,1.7-15.4-2.3-17.1-11.9c-0.8-4.7-0.2-8.8,1.8-12.2
		c2-3.5,5.1-5.5,9.1-6.2c8.4-1.5,13.6,3.2,15.5,14l-15.3,2.7c1.3,7.6,3.9,11.1,7.8,10.4c3.6-0.6,5-3.1,4.3-7.4
		C130.2,111.2,130.1,110.5,129.9,109.8z M117.6,105.5l6.3-1.1c-1.2-6.8-2.8-10-4.8-9.6c-1.8,0.3-2.4,3-1.8,8.1L117.6,105.5z"/>
	<path class="st0" d="M158.1,96.7l-7.2,1.3c0-1.2,0.1-2.1,0.2-2.6c0.1-0.8,0.1-1.6,0-2.2c-0.2-1.2-0.8-1.8-1.7-1.6
		c-0.7,0.1-1.2,1-1.5,2.8c-0.3,1.7-0.3,3.5,0,5.3l3.1,17.4l-10.5,1.9l-5.1-29.1l2.1-0.3c2.4-0.4,5.2-1.2,8.3-2.3l0.8,4.8
		c1.1-3.5,3-5.5,5.4-5.9c3.4-0.6,5.4,1,6.1,4.7c0.2,1,0.2,2.1,0.1,3.5C158.2,94.8,158.2,95.6,158.1,96.7z"/>
	<path class="st0" d="M201.8,94.7l4.7,0.6l0.2,1.2c1.3,7.4-2.1,11.8-10.2,13.2c-9.6,1.7-15.2-2.3-16.9-12c-0.9-4.9-0.1-9,2.1-12.4
		c2.3-3.4,5.8-5.5,10.5-6.3c6.8-1.2,10.7,1.3,11.7,7.4l-4.5,3.3l-0.4-2.8c-0.7-4.2-2.5-6-5.3-5.5c-3.7,0.7-4.8,5.1-3.4,13.2
		c0.9,5,1.9,8.4,3,10.2c1.1,1.7,2.7,2.4,4.9,2c3.9-0.7,5.4-3.6,4.5-8.6C202.7,97.4,202.4,96.2,201.8,94.7z"/>
	<path class="st0" d="M220.1,74.1c9.6-1.7,15.3,2.5,17.1,12.7c1.8,10.2-2.1,16.1-11.7,17.8c-9.6,1.7-15.4-2.5-17.1-12.7
		S210.5,75.8,220.1,74.1z M220.6,76.7c-2.3,0.4-2.7,4.8-1.3,13.3c1.5,8.4,3.4,12.5,5.7,12.1c2.3-0.4,2.8-4.8,1.3-13.3
		C224.8,80.3,222.9,76.2,220.6,76.7z"/>
	<path class="st0" d="M271.8,95.7l-10.5,1.9l-3.8-21.4c-0.4-2.2-1.2-3.2-2.4-2.9c-1.2,0.2-2.1,1.3-2.7,3.1c-0.6,1.9-0.7,4-0.3,6.3
		l2.8,15.9l-10.5,1.9l-5.1-29.1c3.6-0.6,7.1-1.5,10.4-2.6l1,5.5c2-4.1,4.9-6.4,8.6-7.1c4.9-0.9,7.8,1.2,8.6,6.2L271.8,95.7z"/>
	<path class="st0" d="M296.6,69.1l-4.9,1.8c-0.8-4.3-3.2-6.2-7.2-5.5c-2.5,0.4-3.5,1.7-3.2,3.7c0.3,1.5,2.7,2.7,7.3,3.7
		c7,1.5,10.9,4.3,11.6,8.5c1.2,6.6-2.4,10.6-10.8,12c-8.8,1.6-13.8-0.9-14.9-7.5l5.2-2.1c0,0.6,0.1,1.3,0.2,1.8c0.3,1.7,1.3,3,2.9,4
		c1.6,1,3.4,1.3,5.3,1c2.5-0.4,3.6-1.7,3.2-3.9c-0.3-1.4-2.6-2.7-7-3.7c-6.6-1.6-10.3-4.4-11.1-8.6c-0.5-2.8,0.3-5.2,2.4-7.4
		c2.1-2.2,4.9-3.6,8.7-4.2C290.8,61.6,294.9,63.7,296.6,69.1z"/>
	<path class="st0" d="M316.5,58l0.6,3.3l-4.7,0.8l3.6,20.6c0.2,1.3,0.8,1.9,1.6,1.7c0.6-0.1,0.9-0.6,0.8-1.5l3.1-0.2
		c-0.3,3.2-2.7,5.2-7.1,6c-5.3,0.9-8.3-0.9-9.1-5.4l-3.4-19.3l-3.5,0.6l-0.6-3.3l3.5-0.6l-0.9-5.1c3.5-1.6,6.7-3.7,9.8-6.2l1.7,9.5
		L316.5,58z"/>
	<path class="st0" d="M342.6,64.1l-7.2,1.3c0.1-1.2,0.1-2.1,0.2-2.6c0.1-0.8,0.1-1.6,0-2.2c-0.2-1.2-0.8-1.8-1.7-1.6
		c-0.7,0.1-1.2,1-1.5,2.8c-0.3,1.7-0.3,3.5,0,5.3l3.1,17.4L325,86.4l-5.1-29.1l2.1-0.3c2.4-0.4,5.2-1.2,8.3-2.3l0.8,4.8
		c1.1-3.5,3-5.5,5.4-5.9c3.4-0.6,5.4,1,6.1,4.7c0.2,1,0.2,2.1,0.1,3.5C342.7,62.3,342.6,63.1,342.6,64.1z"/>
	<path class="st0" d="M372.6,47.2l5.3,29.8l-10.5,1.9l-0.8-4.6c-1.8,3.9-4.6,6.2-8.4,6.8c-5.1,0.9-8.1-1.1-9-6.1l-3.9-22.1
		c3.5-0.8,7-1.6,10.4-2.6l4,22.6c0.3,2,1.1,2.8,2.3,2.6c3.2-0.6,4.1-4.2,2.9-11l-2.6-14.7C365.7,49,369.1,48.2,372.6,47.2z"/>
	<path class="st0" d="M402.1,59.4l4.7,0.6l0.2,1.2c1.3,7.4-2.1,11.8-10.2,13.2c-9.6,1.7-15.2-2.3-16.9-12c-0.9-4.9-0.1-9,2.1-12.4
		c2.3-3.4,5.8-5.5,10.5-6.3c6.8-1.2,10.7,1.3,11.7,7.4l-4.5,3.3l-0.4-2.8c-0.7-4.2-2.5-6-5.3-5.5c-3.7,0.7-4.8,5.1-3.4,13.2
		c0.9,5,1.9,8.4,3,10.2c1.1,1.7,2.7,2.4,4.9,2c3.9-0.7,5.4-3.6,4.5-8.6C403,62,402.6,60.9,402.1,59.4z"/>
	<path class="st0" d="M423.2,39.1l0.6,3.3l-4.7,0.8l3.6,20.6c0.2,1.3,0.8,1.9,1.6,1.7c0.6-0.1,0.9-0.6,0.8-1.5l3.1-0.2
		c-0.3,3.2-2.7,5.2-7.1,6c-5.3,0.9-8.3-0.9-9.1-5.4l-3.4-19.3l-3.5,0.6l-0.6-3.3l3.5-0.6l-0.9-5.1c3.5-1.6,6.7-3.7,9.8-6.2l1.7,9.5
		L423.2,39.1z"/>
	<path class="st0" d="M430,26.2c3.3-0.6,5.1,0.4,5.6,2.9c0.4,2.5-1,4.1-4.2,4.7c-3.3,0.6-5.1-0.4-5.6-2.9S426.7,26.8,430,26.2z
		 M431.8,67.5l-5.1-29.1c3.3-0.6,6.8-1.5,10.4-2.6l5.3,29.8L431.8,67.5z"/>
	<path class="st0" d="M456.1,32.5c9.6-1.7,15.3,2.5,17.1,12.7s-2.1,16.1-11.7,17.8c-9.6,1.7-15.3-2.5-17.1-12.7
		C442.5,40.1,446.4,34.2,456.1,32.5z M456.5,35c-2.3,0.4-2.7,4.8-1.3,13.3c1.5,8.4,3.4,12.5,5.7,12.1c2.3-0.4,2.8-4.8,1.3-13.3
		C460.8,38.6,458.9,34.6,456.5,35z"/>
	<path class="st0" d="M507.7,54.1L497.2,56l-3.8-21.4c-0.4-2.2-1.2-3.2-2.4-2.9c-1.2,0.2-2.1,1.3-2.7,3.1c-0.6,1.9-0.7,4-0.3,6.3
		l2.8,15.9L480.3,59l-5.1-29.1c3.6-0.6,7.1-1.5,10.4-2.6l1,5.5c2-4.1,4.9-6.4,8.6-7.1c4.9-0.9,7.8,1.2,8.6,6.2L507.7,54.1z"/>
	<path class="st0" d="M516.8,38.2l-7.2-20c-0.1-0.3-0.2-0.7-0.3-1c-0.5-3,1.1-4.8,5-5.5c3.9-0.7,6.1,0.4,6.6,3.4
		c0.1,0.4,0.1,0.8,0.1,1.1l0.1,21.3L516.8,38.2z M519.7,42.1c3.4-0.6,5.4,0.8,6,4.2c0.6,3.4-0.8,5.4-4.2,6c-3.4,0.6-5.4-0.8-6-4.2
		C514.9,44.7,516.3,42.7,519.7,42.1z"/>
</g>
</svg>
