<?xml version="1.0" encoding="utf-8"?>
<svg version="1.1" id="sci_prof" class="svg_icon" xmlns="http://www.w3.org/2000/svg" xmlns:xlink="http://www.w3.org/1999/xlink" x="0px" y="0px"
	 viewBox="0 0 194.3 181.4" style="enable-background:new 0 0 194.3 181.4;" xml:space="preserve">
<g><path d="M137.6,171.4c-0.6,0-1.3-0.1-2-0.1l-6.5,7l-85.5-11.1L3.8,62l37.3-18.7c0.1-0.6,0.3-1.3,0.4-1.9l0,0
		c0.2-0.6,0.3-1.3,0.5-1.9l-42,21L41.5,170l88,11.4l0.8,0.1l9.3-10C138.9,171.4,138.3,171.4,137.6,171.4z"/>
<g><path d="M178.5,41L86.7,20.4L41.1,43.3c-4.4,18.9-6.9,40.9-7.2,55.9c-0.2,10.8,3.4,33.1,13.2,39.7c22,14.7,63.8,30.7,88.5,32.4
			l50-53.7L178.5,41z M77.4,128.2c-9.2,0-18-3.6-24.5-10l7.1-8.4c4.9,4.6,11.4,7.7,17.6,7.7c7.6,0,11.7-3.4,11.7-8.6
			c0-5.5-4.4-7.3-10.5-9.9l-9.3-4c-6.7-2.8-13.7-8.1-13.7-18.1c0-10.9,9.6-19.2,22.9-19.2c7.9,0,15.4,3.1,21,8.7l-6.3,7.8
			c-4.3-3.7-8.9-5.8-14.7-5.8c-6.4,0-10.5,3-10.5,7.9c0,5.3,5.1,7.2,10.8,9.5l9.1,3.8c8.1,3.4,13.7,8.5,13.7,18.3
			C101.8,119,92.7,128.2,77.4,128.2z M134,128.2c-14,0-24.7-9.8-24.7-26.8c0-17,12.1-26.8,25.7-26.8c5.5,0,10.9,2,14.9,5.7l-5.9,7.9
			c-2.7-2.4-5.2-3.7-8.4-3.7c-8.2,0-13.8,6.7-13.8,16.9c0,10.2,5.6,16.8,13.5,16.8c4,0,7.6-1.9,10.5-4.4l4.9,8
			C146.1,126,140.1,128.2,134,128.2z M170.9,126.9h-12.2l0-51.1h12.2V126.9z M164.9,67c-4.3,0-7.5-2.9-7.5-6.8
			c0-4.1,3.2-6.8,7.5-6.8c4.3,0,7.5,2.8,7.5,6.8C172.4,64.2,169.2,67,164.9,67z"/>
<path d="M192,49.8c-3-17.7-26.9-35-45.7-40C114,1.4,71.6-6.5,55.7,8.2C50.2,13.3,45.5,25.3,42,39.5l44.3-22.2l94.9,21.4l7.5,80
			l-49.1,52.8c2,0,4-0.2,6-0.5c15.3-2.5,36.6-19,42.1-36.1C193.1,118.2,196.9,78.4,192,49.8z"/>
</g></g>
</svg>
